<svg xmlns="http://www.w3.org/2000/svg" width="1000" height="1000" viewBox="0 0 1000 1000" version="1.1">
	<path d="M 467.500 1.109 C 347.888 8.638, 233.383 59.992, 148.907 143.995 C 117.770 174.957, 93.480 205.695, 71.600 241.824 C 25.130 318.555, 0.020 409.123, 0.020 500 C 0.020 657.564, 73.467 804.726, 199.500 899.686 C 303.319 977.910, 432.626 1012.140, 563 995.913 C 684.782 980.755, 797.027 920.783, 877.757 827.740 C 942.903 752.657, 983.364 661.928, 996.009 562.571 C 997.124 553.810, 998.323 541.306, 998.674 534.784 C 999.024 528.262, 999.691 522.691, 1000.156 522.404 C 1000.620 522.117, 1001 511.532, 1001 498.882 C 1001 486.232, 1000.618 476.118, 1000.152 476.406 C 999.685 476.694, 999.018 471.627, 998.670 465.144 C 997.290 439.483, 991.799 405.034, 984.544 376.523 C 956.351 265.733, 892.133 169.355, 800.500 100.314 C 705.210 28.517, 587.792 -6.464, 467.500 1.109 M 214.312 385.857 L 100.123 500.711 171.312 571.608 C 210.465 610.601, 262.191 662.075, 286.257 685.994 L 330.014 729.483 365.257 694.220 L 400.500 658.958 321.250 579.815 C 277.663 536.286, 242 500.407, 242 500.083 C 242 499.759, 273.304 468.221, 311.564 429.997 C 349.824 391.774, 385.228 356.081, 390.238 350.680 L 399.349 340.860 364.430 305.930 C 345.224 286.718, 329.283 271.001, 329.005 271.002 C 328.727 271.003, 277.115 322.688, 214.312 385.857 M 634.200 306.300 L 598.922 341.588 678.461 420.867 C 722.208 464.471, 758 500.422, 758 500.759 C 758 501.096, 722.675 536.749, 679.500 579.987 C 636.325 623.226, 601 659.032, 601 659.557 C 601 660.081, 616.751 676.257, 636.002 695.502 L 671.003 730.492 697.840 703.496 C 712.600 688.648, 764.161 636.806, 812.420 588.291 L 900.164 500.082 824.332 424.840 C 782.624 383.456, 730.720 331.915, 708.989 310.304 L 669.478 271.011 634.200 306.300 M 464.998 464.502 L 400.505 529.001 435.753 564.249 L 471.001 599.497 535.503 534.996 L 600.004 470.494 564.748 435.248 L 529.492 400.002 464.998 464.502 M 0.430 500 C 0.430 512.925, 0.573 518.212, 0.747 511.750 C 0.921 505.288, 0.921 494.712, 0.747 488.250 C 0.573 481.788, 0.430 487.075, 0.430 500" stroke="none" fill="black" fill-rule="evenodd"/>
</svg>